<mxfile host="app.diagrams.net" agent="Mozilla/5.0 (Windows NT 10.0; Win64; x64) AppleWebKit/537.36 (KHTML, like Gecko) Chrome/136.0.0.0 Safari/537.36 Edg/136.0.0.0" version="27.0.9">
  <diagram name="第 1 页" id="6XJ5wreTqTtU8fQgGKkk">
    <mxGraphModel dx="1420" dy="821" grid="1" gridSize="10" guides="1" tooltips="1" connect="1" arrows="1" fold="1" page="1" pageScale="1" pageWidth="827" pageHeight="1169" math="0" shadow="0">
      <root>
        <mxCell id="0" />
        <mxCell id="1" parent="0" />
        <mxCell id="Qep2-vDNCiTGIzXLRObW-51" style="edgeStyle=orthogonalEdgeStyle;rounded=0;orthogonalLoop=1;jettySize=auto;html=1;entryX=0.5;entryY=0;entryDx=0;entryDy=0;" edge="1" parent="1" source="Qep2-vDNCiTGIzXLRObW-5" target="Qep2-vDNCiTGIzXLRObW-6">
          <mxGeometry relative="1" as="geometry">
            <Array as="points">
              <mxPoint x="368" y="360" />
              <mxPoint x="666" y="360" />
            </Array>
          </mxGeometry>
        </mxCell>
        <mxCell id="Qep2-vDNCiTGIzXLRObW-5" value="制动器" style="whiteSpace=wrap;strokeWidth=2;fillColor=#f5f5f5;fontColor=#333333;strokeColor=#666666;fontStyle=1;fontSize=15;" vertex="1" parent="1">
          <mxGeometry x="314" y="260" width="108" height="54" as="geometry" />
        </mxCell>
        <mxCell id="Qep2-vDNCiTGIzXLRObW-38" style="edgeStyle=orthogonalEdgeStyle;rounded=0;orthogonalLoop=1;jettySize=auto;html=1;exitX=0.5;exitY=1;exitDx=0;exitDy=0;entryX=0.5;entryY=0;entryDx=0;entryDy=0;" edge="1" parent="1" source="Qep2-vDNCiTGIzXLRObW-6" target="Qep2-vDNCiTGIzXLRObW-10">
          <mxGeometry relative="1" as="geometry" />
        </mxCell>
        <mxCell id="Qep2-vDNCiTGIzXLRObW-6" value="模拟试验台" style="whiteSpace=wrap;strokeWidth=2;fillColor=#f5f5f5;fontColor=#333333;strokeColor=#666666;fontSize=15;fontStyle=1" vertex="1" parent="1">
          <mxGeometry x="596" y="380" width="140" height="54" as="geometry" />
        </mxCell>
        <mxCell id="Qep2-vDNCiTGIzXLRObW-52" style="edgeStyle=orthogonalEdgeStyle;rounded=0;orthogonalLoop=1;jettySize=auto;html=1;entryX=0.5;entryY=0;entryDx=0;entryDy=0;" edge="1" parent="1" source="Qep2-vDNCiTGIzXLRObW-7" target="Qep2-vDNCiTGIzXLRObW-6">
          <mxGeometry relative="1" as="geometry">
            <Array as="points">
              <mxPoint x="558" y="360" />
              <mxPoint x="666" y="360" />
            </Array>
          </mxGeometry>
        </mxCell>
        <mxCell id="Qep2-vDNCiTGIzXLRObW-7" value="电动机" style="whiteSpace=wrap;strokeWidth=2;fillColor=#f5f5f5;fontColor=#333333;strokeColor=#666666;fontSize=15;fontStyle=1" vertex="1" parent="1">
          <mxGeometry x="504" y="260" width="108" height="54" as="geometry" />
        </mxCell>
        <mxCell id="Qep2-vDNCiTGIzXLRObW-53" style="edgeStyle=orthogonalEdgeStyle;rounded=0;orthogonalLoop=1;jettySize=auto;html=1;entryX=0.5;entryY=0;entryDx=0;entryDy=0;" edge="1" parent="1" source="Qep2-vDNCiTGIzXLRObW-8" target="Qep2-vDNCiTGIzXLRObW-6">
          <mxGeometry relative="1" as="geometry">
            <Array as="points">
              <mxPoint x="754" y="360" />
              <mxPoint x="666" y="360" />
            </Array>
          </mxGeometry>
        </mxCell>
        <mxCell id="Qep2-vDNCiTGIzXLRObW-8" value="控制器" style="whiteSpace=wrap;strokeWidth=2;fillColor=#f5f5f5;fontColor=#333333;strokeColor=#666666;fontSize=15;fontStyle=1" vertex="1" parent="1">
          <mxGeometry x="700" y="260" width="108" height="54" as="geometry" />
        </mxCell>
        <mxCell id="Qep2-vDNCiTGIzXLRObW-54" style="edgeStyle=orthogonalEdgeStyle;rounded=0;orthogonalLoop=1;jettySize=auto;html=1;exitX=0.5;exitY=1;exitDx=0;exitDy=0;entryX=0.5;entryY=0;entryDx=0;entryDy=0;" edge="1" parent="1" source="Qep2-vDNCiTGIzXLRObW-9" target="Qep2-vDNCiTGIzXLRObW-6">
          <mxGeometry relative="1" as="geometry">
            <Array as="points">
              <mxPoint x="978" y="360" />
              <mxPoint x="666" y="360" />
            </Array>
          </mxGeometry>
        </mxCell>
        <mxCell id="Qep2-vDNCiTGIzXLRObW-9" value="可更换的模块化机械设备" style="whiteSpace=wrap;strokeWidth=2;fillColor=#f5f5f5;fontColor=#333333;strokeColor=#666666;fontSize=15;fontStyle=1" vertex="1" parent="1">
          <mxGeometry x="860" y="260" width="236" height="54" as="geometry" />
        </mxCell>
        <mxCell id="Qep2-vDNCiTGIzXLRObW-39" style="edgeStyle=orthogonalEdgeStyle;rounded=0;orthogonalLoop=1;jettySize=auto;html=1;entryX=0.5;entryY=0;entryDx=0;entryDy=0;" edge="1" parent="1" source="Qep2-vDNCiTGIzXLRObW-10" target="Qep2-vDNCiTGIzXLRObW-13">
          <mxGeometry relative="1" as="geometry" />
        </mxCell>
        <mxCell id="Qep2-vDNCiTGIzXLRObW-10" value="振动传感器" style="whiteSpace=wrap;strokeWidth=2;fillColor=#ffe6cc;strokeColor=#d79b00;fontSize=15;fontStyle=1" vertex="1" parent="1">
          <mxGeometry x="596" y="490" width="140" height="54" as="geometry" />
        </mxCell>
        <mxCell id="Qep2-vDNCiTGIzXLRObW-55" style="edgeStyle=orthogonalEdgeStyle;rounded=0;orthogonalLoop=1;jettySize=auto;html=1;exitX=0.5;exitY=1;exitDx=0;exitDy=0;" edge="1" parent="1" source="Qep2-vDNCiTGIzXLRObW-13">
          <mxGeometry relative="1" as="geometry">
            <mxPoint x="665.7241379310344" y="690" as="targetPoint" />
          </mxGeometry>
        </mxCell>
        <mxCell id="Qep2-vDNCiTGIzXLRObW-13" value="采集卡" style="whiteSpace=wrap;strokeWidth=2;fillColor=#ffe6cc;strokeColor=#d79b00;fontSize=15;fontStyle=1" vertex="1" parent="1">
          <mxGeometry x="612" y="585" width="108" height="54" as="geometry" />
        </mxCell>
        <mxCell id="Qep2-vDNCiTGIzXLRObW-41" style="edgeStyle=orthogonalEdgeStyle;rounded=0;orthogonalLoop=1;jettySize=auto;html=1;entryX=0.5;entryY=0;entryDx=0;entryDy=0;fillColor=#dae8fc;strokeColor=#000000;" edge="1" parent="1" source="Qep2-vDNCiTGIzXLRObW-14" target="Qep2-vDNCiTGIzXLRObW-15">
          <mxGeometry relative="1" as="geometry" />
        </mxCell>
        <mxCell id="Qep2-vDNCiTGIzXLRObW-14" value="ARM Cortex-M7的MCU为核心的边缘计算硬件平台" style="whiteSpace=wrap;strokeWidth=2;fillColor=#dae8fc;strokeColor=#6c8ebf;fontSize=15;fontStyle=1" vertex="1" parent="1">
          <mxGeometry x="493" y="691" width="346" height="79" as="geometry" />
        </mxCell>
        <mxCell id="Qep2-vDNCiTGIzXLRObW-15" value="上位机" style="whiteSpace=wrap;strokeWidth=2;fillColor=#dae8fc;strokeColor=#6c8ebf;fontSize=15;fontStyle=1" vertex="1" parent="1">
          <mxGeometry x="612" y="820" width="108" height="54" as="geometry" />
        </mxCell>
        <mxCell id="Qep2-vDNCiTGIzXLRObW-42" style="edgeStyle=orthogonalEdgeStyle;rounded=0;orthogonalLoop=1;jettySize=auto;html=1;exitX=1;exitY=0.5;exitDx=0;exitDy=0;entryX=0;entryY=0.5;entryDx=0;entryDy=0;fillColor=#dae8fc;strokeColor=#000000;" edge="1" parent="1" source="Qep2-vDNCiTGIzXLRObW-16" target="Qep2-vDNCiTGIzXLRObW-14">
          <mxGeometry relative="1" as="geometry" />
        </mxCell>
        <mxCell id="Qep2-vDNCiTGIzXLRObW-16" value="网络通讯模块" style="whiteSpace=wrap;strokeWidth=2;fillColor=#dae8fc;strokeColor=#6c8ebf;fontSize=15;fontStyle=1" vertex="1" parent="1">
          <mxGeometry x="230" y="661" width="156" height="54" as="geometry" />
        </mxCell>
        <mxCell id="Qep2-vDNCiTGIzXLRObW-44" style="edgeStyle=orthogonalEdgeStyle;rounded=0;orthogonalLoop=1;jettySize=auto;html=1;exitX=1;exitY=0.5;exitDx=0;exitDy=0;entryX=0;entryY=0.5;entryDx=0;entryDy=0;fillColor=#dae8fc;strokeColor=#000000;" edge="1" parent="1" source="Qep2-vDNCiTGIzXLRObW-17" target="Qep2-vDNCiTGIzXLRObW-14">
          <mxGeometry relative="1" as="geometry" />
        </mxCell>
        <mxCell id="Qep2-vDNCiTGIzXLRObW-17" value="IO控制器" style="whiteSpace=wrap;strokeWidth=2;fillColor=#dae8fc;strokeColor=#6c8ebf;fontSize=15;fontStyle=1" vertex="1" parent="1">
          <mxGeometry x="263" y="741" width="123" height="54" as="geometry" />
        </mxCell>
        <mxCell id="Qep2-vDNCiTGIzXLRObW-49" style="edgeStyle=orthogonalEdgeStyle;rounded=0;orthogonalLoop=1;jettySize=auto;html=1;exitX=0;exitY=0.5;exitDx=0;exitDy=0;entryX=1;entryY=0.5;entryDx=0;entryDy=0;fillColor=#dae8fc;strokeColor=#000000;" edge="1" parent="1" source="Qep2-vDNCiTGIzXLRObW-18" target="Qep2-vDNCiTGIzXLRObW-14">
          <mxGeometry relative="1" as="geometry" />
        </mxCell>
        <mxCell id="Qep2-vDNCiTGIzXLRObW-18" value="数据存储设备" style="whiteSpace=wrap;strokeWidth=2;fillColor=#dae8fc;strokeColor=#6c8ebf;fontSize=15;fontStyle=1" vertex="1" parent="1">
          <mxGeometry x="950" y="741" width="156" height="54" as="geometry" />
        </mxCell>
        <mxCell id="Qep2-vDNCiTGIzXLRObW-48" style="edgeStyle=orthogonalEdgeStyle;rounded=0;orthogonalLoop=1;jettySize=auto;html=1;exitX=0;exitY=0.5;exitDx=0;exitDy=0;entryX=1;entryY=0.5;entryDx=0;entryDy=0;fillColor=#dae8fc;strokeColor=#000000;" edge="1" parent="1" source="Qep2-vDNCiTGIzXLRObW-19" target="Qep2-vDNCiTGIzXLRObW-14">
          <mxGeometry relative="1" as="geometry" />
        </mxCell>
        <mxCell id="Qep2-vDNCiTGIzXLRObW-19" value="A/D转换器" style="whiteSpace=wrap;strokeWidth=2;fillColor=#dae8fc;strokeColor=#6c8ebf;fontSize=15;fontStyle=1" vertex="1" parent="1">
          <mxGeometry x="950" y="661" width="136" height="54" as="geometry" />
        </mxCell>
      </root>
    </mxGraphModel>
  </diagram>
</mxfile>
